<svg width="90" height="90" viewBox="0 0 90 90" fill="none" xmlns="http://www.w3.org/2000/svg">
<path d="M16.5125 69.8438C21.15 66.6049 25.7507 64.1205 30.3146 62.3906C34.8785 60.6608 39.7737 59.7958 45 59.7958C50.2264 59.7958 55.14 60.6608 59.7407 62.3906C64.3414 64.1205 68.9605 66.6049 73.598 69.8438C76.8369 65.8687 79.1372 61.8569 80.499 57.8083C81.8608 53.7597 82.5417 49.4903 82.5417 45C82.5417 34.3264 78.9532 25.401 71.7761 18.224C64.599 11.0469 55.6737 7.45833 45 7.45833C34.3264 7.45833 25.4011 11.0469 18.224 18.224C11.0469 25.401 7.45837 34.3264 7.45837 45C7.45837 49.4903 8.15768 53.7597 9.55629 57.8083C10.9549 61.8569 13.2737 65.8687 16.5125 69.8438ZM45 48.3125C40.7306 48.3125 37.1421 46.8587 34.2344 43.951C31.3268 41.0434 29.873 37.4549 29.873 33.1854C29.873 28.916 31.3268 25.3274 34.2344 22.4198C37.1421 19.5121 40.7306 18.0583 45 18.0583C49.2695 18.0583 52.858 19.5121 55.7657 22.4198C58.6733 25.3274 60.1271 28.916 60.1271 33.1854C60.1271 37.4549 58.6733 41.0434 55.7657 43.951C52.858 46.8587 49.2695 48.3125 45 48.3125ZM45 89.1667C38.9639 89.1667 33.2591 88.0073 27.8855 85.6885C22.5118 83.3698 17.8191 80.2045 13.8073 76.1927C9.79553 72.1809 6.63025 67.4882 4.3115 62.1146C1.99275 56.741 0.833374 51.0361 0.833374 45C0.833374 38.8903 1.99275 33.167 4.3115 27.8302C6.63025 22.4934 9.79553 17.8191 13.8073 13.8073C17.8191 9.79548 22.5118 6.6302 27.8855 4.31145C33.2591 1.9927 38.9639 0.833328 45 0.833328C51.1098 0.833328 56.833 1.9927 62.1698 4.31145C67.5066 6.6302 72.181 9.79548 76.1928 13.8073C80.2046 17.8191 83.3698 22.4934 85.6886 27.8302C88.0073 33.167 89.1667 38.8903 89.1667 45C89.1667 51.0361 88.0073 56.741 85.6886 62.1146C83.3698 67.4882 80.2046 72.1809 76.1928 76.1927C72.181 80.2045 67.5066 83.3698 62.1698 85.6885C56.833 88.0073 51.1098 89.1667 45 89.1667ZM45 82.5417C49.0487 82.5417 53.0053 81.9528 56.8698 80.775C60.7344 79.5972 64.5438 77.5361 68.298 74.5917C64.5438 71.9417 60.716 69.9174 56.8146 68.5188C52.9132 67.1201 48.975 66.4208 45 66.4208C41.025 66.4208 37.0868 67.1201 33.1855 68.5188C29.2841 69.9174 25.4563 71.9417 21.7021 74.5917C25.4563 77.5361 29.2657 79.5972 33.1303 80.775C36.9948 81.9528 40.9514 82.5417 45 82.5417ZM45 41.6875C47.5028 41.6875 49.5455 40.8962 51.1282 39.3135C52.7108 37.7309 53.5021 35.6882 53.5021 33.1854C53.5021 30.6826 52.7108 28.6399 51.1282 27.0573C49.5455 25.4747 47.5028 24.6833 45 24.6833C42.4973 24.6833 40.4546 25.4747 38.8719 27.0573C37.2893 28.6399 36.498 30.6826 36.498 33.1854C36.498 35.6882 37.2893 37.7309 38.8719 39.3135C40.4546 40.8962 42.4973 41.6875 45 41.6875Z" fill="#D9D9D9"/>
</svg>
