<svg width="104" height="30" viewBox="0 0 104 30" fill="none" xmlns="http://www.w3.org/2000/svg">
<path d="M34.702 11.994H37.646V13.972H37.738C37.9527 13.282 38.359 12.7377 38.957 12.339C39.555 11.925 40.2527 11.718 41.05 11.718C42.5833 11.718 43.7487 12.2623 44.546 13.351C45.3587 14.4243 45.765 15.9653 45.765 17.974C45.765 19.998 45.3587 21.5543 44.546 22.643C43.7487 23.7317 42.5833 24.276 41.05 24.276C40.2527 24.276 39.555 24.069 38.957 23.655C38.3743 23.241 37.968 22.689 37.738 21.999H37.646V28.6H34.702V11.994ZM40.107 21.838C40.8737 21.838 41.4947 21.585 41.97 21.079C42.4453 20.573 42.683 19.8907 42.683 19.032V16.962C42.683 16.1033 42.4453 15.421 41.97 14.915C41.4947 14.3937 40.8737 14.133 40.107 14.133C39.4017 14.133 38.8113 14.3093 38.336 14.662C37.876 15.0147 37.646 15.4823 37.646 16.065V19.883C37.646 20.5117 37.876 20.9947 38.336 21.332C38.8113 21.6693 39.4017 21.838 40.107 21.838ZM56.405 24C55.761 24 55.2473 23.816 54.864 23.448C54.496 23.0647 54.266 22.5587 54.174 21.93H54.036C53.8367 22.712 53.4303 23.3023 52.817 23.701C52.2037 24.0843 51.4447 24.276 50.54 24.276C49.3133 24.276 48.3703 23.954 47.711 23.31C47.0517 22.666 46.722 21.8073 46.722 20.734C46.722 19.492 47.1667 18.572 48.056 17.974C48.9453 17.3607 50.2103 17.054 51.851 17.054H53.898V16.18C53.898 15.5053 53.7217 14.984 53.369 14.616C53.0163 14.248 52.449 14.064 51.667 14.064C50.977 14.064 50.4173 14.2173 49.988 14.524C49.574 14.8153 49.2213 15.168 48.93 15.582L47.182 14.018C47.6267 13.328 48.217 12.776 48.953 12.362C49.689 11.9327 50.6627 11.718 51.874 11.718C53.4993 11.718 54.7337 12.086 55.577 12.822C56.4203 13.558 56.842 14.616 56.842 15.996V21.654H58.038V24H56.405ZM51.529 22.137C52.1883 22.137 52.748 21.9913 53.208 21.7C53.668 21.4087 53.898 20.9793 53.898 20.412V18.825H52.012C50.4787 18.825 49.712 19.3157 49.712 20.297V20.688C49.712 21.1787 49.8653 21.5467 50.172 21.792C50.494 22.022 50.9463 22.137 51.529 22.137ZM63.4337 24.276C62.2837 24.276 61.3177 24.0843 60.5357 23.701C59.7537 23.3023 59.0637 22.758 58.4657 22.068L60.2597 20.32C60.7043 20.826 61.1873 21.2247 61.7087 21.516C62.2453 21.8073 62.8587 21.953 63.5487 21.953C64.254 21.953 64.76 21.8303 65.0667 21.585C65.3887 21.3397 65.5497 21.0023 65.5497 20.573C65.5497 20.2203 65.4347 19.9443 65.2047 19.745C64.99 19.5303 64.6143 19.3847 64.0777 19.308L62.8817 19.147C61.5783 18.9783 60.5817 18.6103 59.8917 18.043C59.217 17.4603 58.8797 16.617 58.8797 15.513C58.8797 14.9303 58.987 14.409 59.2017 13.949C59.4163 13.4737 59.723 13.075 60.1217 12.753C60.5203 12.4157 60.9957 12.1627 61.5477 11.994C62.115 11.81 62.7437 11.718 63.4337 11.718C64.0163 11.718 64.53 11.764 64.9747 11.856C65.4347 11.9327 65.8487 12.0553 66.2167 12.224C66.5847 12.3773 66.922 12.5767 67.2287 12.822C67.5353 13.052 67.8343 13.3127 68.1257 13.604L66.4007 15.329C66.048 14.961 65.6263 14.6543 65.1357 14.409C64.645 14.1637 64.1083 14.041 63.5257 14.041C62.8817 14.041 62.414 14.156 62.1227 14.386C61.8467 14.616 61.7087 14.915 61.7087 15.283C61.7087 15.6817 61.8237 15.9883 62.0537 16.203C62.299 16.4023 62.7053 16.548 63.2727 16.64L64.4917 16.801C67.083 17.169 68.3787 18.3497 68.3787 20.343C68.3787 20.9257 68.256 21.4623 68.0107 21.953C67.7807 22.4283 67.451 22.8423 67.0217 23.195C66.5923 23.5323 66.071 23.8007 65.4577 24C64.8597 24.184 64.185 24.276 63.4337 24.276ZM73.834 24.276C72.684 24.276 71.718 24.0843 70.936 23.701C70.154 23.3023 69.464 22.758 68.866 22.068L70.66 20.32C71.1047 20.826 71.5877 21.2247 72.109 21.516C72.6457 21.8073 73.259 21.953 73.949 21.953C74.6543 21.953 75.1603 21.8303 75.467 21.585C75.789 21.3397 75.95 21.0023 75.95 20.573C75.95 20.2203 75.835 19.9443 75.605 19.745C75.3903 19.5303 75.0147 19.3847 74.478 19.308L73.282 19.147C71.9787 18.9783 70.982 18.6103 70.292 18.043C69.6173 17.4603 69.28 16.617 69.28 15.513C69.28 14.9303 69.3873 14.409 69.602 13.949C69.8167 13.4737 70.1233 13.075 70.522 12.753C70.9207 12.4157 71.396 12.1627 71.948 11.994C72.5153 11.81 73.144 11.718 73.834 11.718C74.4167 11.718 74.9303 11.764 75.375 11.856C75.835 11.9327 76.249 12.0553 76.617 12.224C76.985 12.3773 77.3223 12.5767 77.629 12.822C77.9357 13.052 78.2347 13.3127 78.526 13.604L76.801 15.329C76.4483 14.961 76.0267 14.6543 75.536 14.409C75.0453 14.1637 74.5087 14.041 73.926 14.041C73.282 14.041 72.8143 14.156 72.523 14.386C72.247 14.616 72.109 14.915 72.109 15.283C72.109 15.6817 72.224 15.9883 72.454 16.203C72.6993 16.4023 73.1057 16.548 73.673 16.64L74.892 16.801C77.4833 17.169 78.779 18.3497 78.779 20.343C78.779 20.9257 78.6563 21.4623 78.411 21.953C78.181 22.4283 77.8513 22.8423 77.422 23.195C76.9927 23.5323 76.4713 23.8007 75.858 24C75.26 24.184 74.5853 24.276 73.834 24.276ZM81.9305 10.246C81.3172 10.246 80.8725 10.108 80.5965 9.832C80.3359 9.556 80.2055 9.20333 80.2055 8.774V8.314C80.2055 7.88467 80.3359 7.532 80.5965 7.256C80.8725 6.98 81.3172 6.842 81.9305 6.842C82.5285 6.842 82.9655 6.98 83.2415 7.256C83.5175 7.532 83.6555 7.88467 83.6555 8.314V8.774C83.6555 9.20333 83.5175 9.556 83.2415 9.832C82.9655 10.108 82.5285 10.246 81.9305 10.246ZM80.4585 11.994H83.4025V24H80.4585V11.994ZM86.493 14.317H84.722V11.994H86.493V10.269C86.493 9.211 86.769 8.39833 87.321 7.831C87.8883 7.26367 88.7163 6.98 89.805 6.98H91.898V9.326H89.437V11.994H91.898V14.317H89.437V24H86.493V14.317ZM100.601 11.994H103.361L98.5306 26.139C98.3773 26.5683 98.2009 26.9363 98.0016 27.243C97.8176 27.565 97.5953 27.8257 97.3346 28.025C97.0739 28.2243 96.7596 28.37 96.3916 28.462C96.0236 28.554 95.5943 28.6 95.1036 28.6H93.3326V26.254H95.4946L96.0466 24.575L91.7456 11.994H94.6666L96.7596 18.342L97.5416 21.378H97.6796L98.5076 18.342L100.601 11.994Z" fill="white"/>
<path fill-rule="evenodd" clip-rule="evenodd" d="M0 13C0 12.4477 0.447708 12 1 12H7.75L15.5 12.5L23.25 12H30C30.5523 12 31 12.4477 31 13V22C31 22.5523 30.5523 23 30 23H23.6526C23.5515 23 23.4509 22.9846 23.3543 22.9545L15.8082 20.5963C15.6078 20.5337 15.3928 20.5357 15.1937 20.6021L8.15395 22.9487C8.05199 22.9827 7.94521 23 7.83772 23H1C0.447708 23 0 22.5523 0 22V13ZM10 17.5C10 19.433 8.433 21 6.5 21C4.567 21 3 19.433 3 17.5C3 15.567 4.567 14 6.5 14C8.433 14 10 15.567 10 17.5ZM23.5 21C25.433 21 27 19.433 27 17.5C27 15.567 25.433 14 23.5 14C21.567 14 20 15.567 20 17.5C20 19.433 21.567 21 23.5 21Z" fill="#21C0E3"/>
</svg>
